PathFileType	4	(X/Y/Z)	Patient4_TMGait_0pt6_01_left_09.trc.trc
DataRate	CameraRate	NumFrames	NumMarkers	Units	OrigDataRate	OrigDataStartFrame	OrigNumFrames
82.840236686390	82.840236686390	4	33	mm	82.840236686390	71	       141
Frame#	Time	Sacral			L.Shoulder			Chest			R.Shoulder			Neck			R.ASIS			L.ASIS			R.Thigh.Superior			R.Thigh.Lateral			R.Thigh.Inferior			R.Patella			L.Thigh.Superior			L.Thigh.Lateral			L.Thigh.Inferior			L.Patella			L.Shank.Superior			L.Shank.Lateral			L.Shank.Inferior			R.Shank.Superior			R.Shank.Lateral			R.Shank.Inferior			R.Heel			R.Midfoot.Superior			R.Midfoot.Lateral			R.Toe			L.Heel			L.Midfoot.Lateral			L.Midfoot.Superior			L.Toe			L.Elbow			L.Wrist			R.Elbow			R.Wrist			
		X1	Y1	Z1	X2	Y2	Z2	X3	Y3	Z3	X4	Y4	Z4	X5	Y5	Z5	X6	Y6	Z6	X7	Y7	Z7	X8	Y8	Z8	X9	Y9	Z9	X10	Y10	Z10	X11	Y11	Z11	X12	Y12	Z12	X13	Y13	Z13	X14	Y14	Z14	X15	Y15	Z15	X16	Y16	Z16	X17	Y17	Z17	X18	Y18	Z18	X19	Y19	Z19	X20	Y20	Z20	X21	Y21	Z21	X22	Y22	Z22	X23	Y23	Z23	X24	Y24	Z24	X25	Y25	Z25	X26	Y26	Z26	X27	Y27	Z27	X28	Y28	Z28	X29	Y29	Z29	X30	Y30	Z30	X31	Y31	Z31	X32	Y32	Z32	X33	Y33	Z33	

71	11.785000000000	630.875713769015	989.851719541356	433.871157506958	788.412259524627	1423.446171468633	252.246379177290	885.255860504228	1364.132545313913	420.116063448639	789.119076437516	1437.183619249330	586.751265347947	761.655389839994	1486.774954910566	402.303262244134	856.543300694803	933.265397801071	556.625856506055	851.265500459307	966.695020139478	281.095592682142	934.160131704620	765.107293791537	530.531686181668	895.206895081205	640.608303248956	604.718133855764	988.959270349423	608.495110415574	527.576766792761	1025.705787049887	522.891813787288	545.771568343480	858.644201217284	737.404818821054	306.334492232424	741.672461878932	639.199386675104	249.192589639996	804.640780553016	548.088874141232	312.147587499042	790.905593126577	481.706046409633	322.599343832095	760.908123969098	414.655233504985	317.055052848194	661.914045664714	303.325657298203	276.581194659311	714.393000058867	193.052718847428	350.545601104743	1007.174989355738	432.841612128770	553.157909815367	947.609296873092	320.180701369967	612.323551295743	1016.170378380485	232.603107485678	562.665625525652	920.223880348052	45.715675927475	527.817299244650	1080.542809836390	120.699396243731	577.898833521654	999.863265289920	44.953712835354	606.422416250874	1202.225613708628	83.832363975981	611.388068944393	587.500903101840	37.646836790223	406.757858231240	657.852463229624	33.568196955933	322.397711752022	741.082002295882	96.909134133070	343.719638737209	868.481749817123	49.331025139780	313.832710743734	862.175716279425	1081.477295235611	129.079533484946	1110.740214607062	1012.056941992718	150.604851935914	642.619274499693	1134.621061107552	708.814422725765	602.191550500458	876.971897800821	729.801901416857	
72	11.797071428571	631.860274892164	989.058561083612	434.888543197945	789.337921994791	1422.283701572070	252.971311256370	885.892982086822	1363.268205324802	421.093867750469	789.412569448173	1436.556442752929	587.453176624624	762.309605150606	1485.828254425403	402.954762494380	857.320464101969	932.178565534610	557.979883654000	851.954650262332	965.530150719287	282.443459266926	934.303065594115	763.119043099342	531.729789601755	893.848301861645	638.267358240226	604.415372331837	987.746550780921	606.163039938081	527.695884740133	1023.085627331510	520.252706292167	544.838907394061	858.305184555391	736.080926627037	307.306747582086	740.553825600876	638.651153344407	250.108956411149	802.775393086190	547.007284023361	313.074873512600	788.448100900352	480.484403529052	323.545833975433	757.769690256857	413.667020197176	317.784032841520	657.529671862542	303.544304387762	277.008566013887	708.600282945398	192.541128265553	350.789059264945	1004.553500830655	430.062450766338	552.069524581960	944.700908625015	317.459015628051	610.773924326245	1012.803689137745	229.924410757853	560.707827901824	916.015328137942	44.307519695996	525.756063005118	1076.872726537561	117.551659122832	574.917521108326	995.824635624635	42.981306100163	604.068823622814	1198.447365798597	79.766686330081	608.092686846876	580.232393339177	37.699753711290	406.661756197624	650.614541239525	33.585789953683	322.384843256168	733.942897068530	96.737795654603	343.794710298849	861.235052807762	48.999384857870	313.859453082250	862.219395339581	1080.218070938256	129.650826451066	1110.885352816462	1011.374045056877	150.811995719310	642.047859274663	1134.908821204249	710.113763010995	601.284510312324	877.427434812117	732.116218097022	
73	11.809142857143	632.914660586336	988.289439399760	436.145353917424	790.215070749550	1421.170840396119	253.839297164551	886.595475466529	1362.468059520112	422.155057883479	789.812953492585	1435.901820738031	588.305708411461	763.009552489078	1484.911687399908	403.771297925121	858.346228460382	931.137800251491	559.362523656301	852.722000877724	964.367064017911	283.849647656074	935.039217215029	761.231525648401	532.828633607832	892.937181825577	636.060853516850	603.919240278098	986.944947956782	603.919110330113	527.622182936925	1020.696909073573	517.451538232675	543.691834899124	858.148374787129	734.757485831001	308.322456829166	739.615820224071	638.073989315690	251.206929617584	801.224452391736	545.899056177319	314.066714520419	786.318480399156	479.172618104267	324.604356587256	754.909847310496	412.610837920552	318.626272488769	653.315594693797	303.808239185424	277.564314278548	702.899453107603	192.013864723928	351.070956490896	1001.749074582435	427.091063619779	550.826123476806	941.102402737948	314.877065760978	609.173884193937	1008.138274569648	227.020563398701	558.626184915802	909.425918006975	43.326246265613	523.770870710648	1071.195637580800	114.076455015940	571.844479044261	989.400667212976	41.240136760540	601.840638887686	1192.513878839829	74.800738634069	604.790601326890	572.958149108299	37.774121191377	406.540453890828	643.386647320241	33.610489882803	322.374007800892	726.817011047171	96.579848646983	343.864230190616	854.006893550495	48.604507283193	313.869793330828	861.977144238447	1078.913928804896	130.340375148828	1110.527929625158	1009.599322878996	151.048884690296	642.281495329945	1134.703296168279	711.529956149852	601.932922622023	877.247515926775	734.382131884179	
74	11.821214285714	634.026201929468	987.578496652611	437.647112848970	791.034948385816	1420.142121546779	254.850181352339	887.374213785221	1361.754831717151	423.286621626646	790.352897051022	1435.242228330716	589.309789765776	763.763174164673	1484.059703972905	404.747325083469	859.614002404706	930.176716472118	560.750234740909	853.556822230194	963.231936829253	285.300023452565	936.287173003078	759.416438758747	533.807780118841	892.386492658237	634.024362785575	603.301045417305	986.422935400203	601.751588274266	527.361728129661	1018.489589872312	514.573480409667	542.361660489559	858.153628409332	733.463014381153	309.368911600265	738.834021308274	637.490760528902	252.485769778900	799.985678931012	544.784654726840	315.110248394884	784.531717052186	477.777081367564	325.743456275683	752.317109449494	411.509423385379	319.567466663168	649.255864316554	304.145518666121	278.249955743534	697.285895916138	191.498165667723	351.380460645812	998.826697412809	424.038678524557	549.490215872128	937.082028831128	312.452510406254	607.644390051823	1002.569022165204	224.000597310770	556.532664242969	901.150712122081	42.646613562540	522.001531012536	1064.069802846156	110.509919026835	568.858253475191	981.292494617945	39.749913115014	599.879749085557	1185.060849626658	69.409030546554	601.649996547508	565.677096250716	37.908456693342	406.391780384315	636.172357956936	33.652550139089	322.367350401698	719.716971626657	96.444749851993	343.918319168039	846.809383914230	48.127800854312	313.861178937837	861.456669778833	1077.593896322401	131.169026960809	1109.661567265427	1006.731439889623	151.321547716551	643.324720479596	1134.031965292970	713.062496404193	604.113619837089	876.465791184427	736.588877584165	
